<svg xmlns="http://www.w3.org/2000/svg" xmlns:xlink="http://www.w3.org/1999/xlink" width="480" zoomAndPan="magnify" viewBox="0 0 360 359.999987" height="480" preserveAspectRatio="xMidYMid meet" version="1.0"><defs><clipPath id="8552a796ce"><path d="M 0 0 L 294.644531 0 L 294.644531 288.75 L 0 288.75 Z M 0 0 " clip-rule="nonzero"/></clipPath><clipPath id="ceb2d3b2ed"><path d="M 0 160 L 294 160 L 294 288.75 L 0 288.75 Z M 0 160 " clip-rule="nonzero"/></clipPath></defs><g clip-path="url(#8552a796ce)"><path fill="#ffd74e" d="M -0.773438 144.375 C -0.773438 64.632812 65.347656 0 146.894531 0 C 228.445312 0 294.566406 64.632812 294.566406 144.375 C 294.578125 158.925781 292.398438 173.140625 288.023438 187.019531 C 269.410156 245.972656 213.339844 288.75 146.894531 288.75 C 65.347656 288.75 -0.773438 224.101562 -0.773438 144.375 Z M -0.773438 144.375 " fill-opacity="1" fill-rule="nonzero"/></g><g clip-path="url(#ceb2d3b2ed)"><path fill="#ffba52" d="M 0.871094 161.753906 C -0.0664062 153.0625 89.058594 243.941406 172.296875 232.242188 C 252.398438 220.945312 293.09375 155.070312 293.042969 160.417969 C 292.453125 219.023438 228.460938 288.75 146.894531 288.75 C 65.332031 288.75 7.804688 225.679688 0.871094 161.753906 Z M 0.871094 161.753906 " fill-opacity="0.83" fill-rule="nonzero"/></g><path fill="#ffba52" d="M 193.492188 84.875 C 193.457031 83.925781 193.511719 82.980469 193.664062 82.042969 C 193.816406 81.109375 194.058594 80.195312 194.390625 79.304688 C 194.722656 78.414062 195.140625 77.566406 195.640625 76.761719 C 196.140625 75.953125 196.71875 75.203125 197.367188 74.511719 C 198.019531 73.820312 198.730469 73.199219 199.503906 72.648438 C 200.277344 72.097656 201.097656 71.625 201.964844 71.238281 C 202.832031 70.847656 203.730469 70.550781 204.65625 70.339844 C 205.582031 70.128906 206.523438 70.011719 207.472656 69.988281 C 208.421875 69.960938 209.363281 70.03125 210.300781 70.195312 C 211.238281 70.355469 212.148438 70.609375 213.035156 70.953125 C 213.921875 71.296875 214.765625 71.722656 215.566406 72.234375 C 216.367188 72.746094 217.109375 73.328125 217.792969 73.988281 C 218.480469 74.644531 219.09375 75.363281 219.636719 76.144531 C 220.175781 76.925781 220.636719 77.75 221.015625 78.621094 C 221.394531 79.492188 221.683594 80.390625 221.882812 81.320312 C 222.082031 82.246094 222.1875 83.1875 222.199219 84.136719 C 222.210938 85.085938 222.128906 86.027344 221.957031 86.960938 C 221.78125 87.894531 221.515625 88.800781 221.160156 89.679688 C 220.808594 90.5625 220.367188 91.398438 219.847656 92.191406 C 219.328125 92.988281 218.730469 93.722656 218.066406 94.398438 C 217.398438 95.074219 216.671875 95.675781 215.882812 96.207031 C 215.09375 96.742188 214.261719 97.191406 213.386719 97.554688 C 212.511719 97.921875 211.605469 98.199219 210.675781 98.386719 C 209.742188 98.574219 208.800781 98.667969 207.851562 98.667969 C 206.925781 98.6875 206.007812 98.613281 205.097656 98.453125 C 204.1875 98.289062 203.300781 98.039062 202.441406 97.703125 C 201.578125 97.367188 200.761719 96.949219 199.980469 96.449219 C 199.203125 95.949219 198.480469 95.382812 197.8125 94.742188 C 197.144531 94.101562 196.546875 93.402344 196.019531 92.644531 C 195.492188 91.886719 195.042969 91.082031 194.671875 90.238281 C 194.300781 89.390625 194.015625 88.515625 193.816406 87.613281 C 193.617188 86.710938 193.511719 85.796875 193.492188 84.875 Z M 193.492188 84.875 " fill-opacity="0.83" fill-rule="nonzero"/><path fill="#ffba52" d="M 81.875 37.523438 C 81.875 27.058594 91.027344 18.566406 102.335938 18.566406 C 113.640625 18.566406 122.796875 27.058594 122.796875 37.523438 C 122.796875 47.992188 113.628906 56.480469 102.335938 56.480469 C 91.039062 56.480469 81.875 47.992188 81.875 37.523438 Z M 81.875 37.523438 " fill-opacity="0.83" fill-rule="nonzero"/><path fill="#ffba52" d="M 58.949219 85.355469 C 58.9375 84.917969 58.964844 84.488281 59.039062 84.058594 C 59.113281 83.628906 59.226562 83.210938 59.382812 82.804688 C 59.535156 82.398438 59.730469 82.007812 59.964844 81.640625 C 60.195312 81.273438 60.460938 80.929688 60.761719 80.613281 C 61.0625 80.296875 61.390625 80.015625 61.746094 79.765625 C 62.105469 79.515625 62.480469 79.300781 62.878906 79.125 C 63.277344 78.949219 63.691406 78.8125 64.117188 78.71875 C 64.542969 78.625 64.972656 78.574219 65.410156 78.566406 C 65.84375 78.554688 66.277344 78.589844 66.707031 78.667969 C 67.136719 78.742188 67.554688 78.863281 67.960938 79.019531 C 68.363281 79.179688 68.75 79.378906 69.117188 79.613281 C 69.484375 79.851562 69.824219 80.121094 70.136719 80.421875 C 70.449219 80.726562 70.730469 81.058594 70.976562 81.414062 C 71.222656 81.773438 71.433594 82.152344 71.605469 82.554688 C 71.777344 82.953125 71.910156 83.367188 72 83.792969 C 72.089844 84.21875 72.136719 84.648438 72.140625 85.085938 C 72.144531 85.519531 72.109375 85.953125 72.027344 86.378906 C 71.945312 86.808594 71.824219 87.222656 71.660156 87.628906 C 71.496094 88.03125 71.292969 88.414062 71.054688 88.777344 C 70.8125 89.144531 70.542969 89.480469 70.234375 89.789062 C 69.929688 90.097656 69.59375 90.375 69.234375 90.617188 C 68.871094 90.863281 68.488281 91.066406 68.085938 91.234375 C 67.683594 91.402344 67.269531 91.53125 66.84375 91.617188 C 66.414062 91.703125 65.984375 91.746094 65.546875 91.746094 C 65.121094 91.75 64.699219 91.714844 64.277344 91.640625 C 63.859375 91.5625 63.449219 91.445312 63.054688 91.289062 C 62.65625 91.128906 62.28125 90.9375 61.921875 90.703125 C 61.5625 90.472656 61.230469 90.210938 60.925781 89.914062 C 60.621094 89.617188 60.34375 89.292969 60.101562 88.941406 C 59.859375 88.59375 59.652344 88.222656 59.484375 87.832031 C 59.316406 87.4375 59.183594 87.035156 59.09375 86.617188 C 59.003906 86.203125 58.957031 85.78125 58.949219 85.355469 Z M 58.949219 85.355469 " fill-opacity="0.83" fill-rule="nonzero"/><path fill="#ffba52" d="M 251.234375 159.078125 C 251.269531 158.636719 251.34375 158.203125 251.457031 157.777344 C 251.574219 157.351562 251.730469 156.9375 251.925781 156.542969 C 252.125 156.144531 252.355469 155.773438 252.625 155.421875 C 252.894531 155.070312 253.195312 154.746094 253.523438 154.453125 C 253.855469 154.160156 254.210938 153.898438 254.59375 153.675781 C 254.976562 153.453125 255.375 153.265625 255.792969 153.117188 C 256.210938 152.972656 256.640625 152.867188 257.078125 152.800781 C 257.515625 152.738281 257.957031 152.714844 258.398438 152.738281 C 258.839844 152.757812 259.277344 152.824219 259.707031 152.929688 C 260.136719 153.035156 260.554688 153.179688 260.953125 153.367188 C 261.355469 153.550781 261.734375 153.777344 262.09375 154.035156 C 262.453125 154.296875 262.78125 154.585938 263.085938 154.910156 C 263.386719 155.234375 263.65625 155.585938 263.886719 155.960938 C 264.121094 156.335938 264.316406 156.730469 264.476562 157.144531 C 264.632812 157.558594 264.746094 157.984375 264.824219 158.417969 C 264.898438 158.855469 264.929688 159.292969 264.917969 159.738281 C 264.910156 160.179688 264.855469 160.617188 264.761719 161.046875 C 264.664062 161.480469 264.527344 161.898438 264.351562 162.304688 C 264.175781 162.710938 263.960938 163.09375 263.710938 163.460938 C 263.460938 163.824219 263.175781 164.160156 262.859375 164.46875 C 262.542969 164.777344 262.199219 165.054688 261.828125 165.296875 C 261.457031 165.539062 261.066406 165.746094 260.65625 165.910156 C 260.246094 166.078125 259.824219 166.207031 259.390625 166.289062 C 258.957031 166.375 258.515625 166.417969 258.074219 166.417969 C 257.609375 166.402344 257.148438 166.339844 256.695312 166.230469 C 256.242188 166.125 255.804688 165.972656 255.378906 165.78125 C 254.957031 165.585938 254.554688 165.351562 254.179688 165.082031 C 253.800781 164.808594 253.453125 164.503906 253.136719 164.160156 C 252.820312 163.820312 252.539062 163.453125 252.292969 163.058594 C 252.046875 162.660156 251.84375 162.246094 251.679688 161.808594 C 251.519531 161.375 251.398438 160.925781 251.324219 160.464844 C 251.25 160.007812 251.21875 159.546875 251.234375 159.078125 Z M 251.234375 159.078125 " fill-opacity="0.83" fill-rule="nonzero"/><path fill="#ffba52" d="M 1.582031 151.394531 C 1.566406 150.929688 1.59375 150.464844 1.667969 150.007812 C 1.746094 149.546875 1.863281 149.101562 2.027344 148.664062 C 2.191406 148.230469 2.394531 147.816406 2.640625 147.417969 C 2.882812 147.023438 3.164062 146.65625 3.480469 146.316406 C 3.800781 145.976562 4.148438 145.671875 4.523438 145.398438 C 4.902344 145.125 5.304688 144.894531 5.726562 144.703125 C 6.152344 144.507812 6.589844 144.359375 7.042969 144.253906 C 7.496094 144.144531 7.953125 144.082031 8.417969 144.066406 C 8.902344 144.066406 9.382812 144.113281 9.855469 144.207031 C 10.328125 144.304688 10.789062 144.441406 11.234375 144.628906 C 11.683594 144.8125 12.105469 145.039062 12.507812 145.304688 C 12.910156 145.574219 13.28125 145.878906 13.625 146.222656 C 13.964844 146.5625 14.269531 146.933594 14.539062 147.335938 C 14.808594 147.738281 15.035156 148.160156 15.21875 148.605469 C 15.40625 149.050781 15.542969 149.511719 15.636719 149.984375 C 15.734375 150.460938 15.78125 150.9375 15.78125 151.421875 C 15.78125 151.902344 15.734375 152.382812 15.636719 152.855469 C 15.542969 153.328125 15.40625 153.789062 15.21875 154.234375 C 15.035156 154.679688 14.808594 155.101562 14.539062 155.503906 C 14.269531 155.90625 13.964844 156.277344 13.625 156.617188 C 13.28125 156.960938 12.910156 157.265625 12.507812 157.535156 C 12.105469 157.800781 11.683594 158.027344 11.234375 158.210938 C 10.789062 158.398438 10.328125 158.535156 9.855469 158.632812 C 9.382812 158.726562 8.902344 158.773438 8.417969 158.773438 C 7.953125 158.757812 7.492188 158.695312 7.035156 158.585938 C 6.578125 158.480469 6.140625 158.328125 5.714844 158.132812 C 5.289062 157.9375 4.886719 157.703125 4.507812 157.429688 C 4.128906 157.15625 3.78125 156.847656 3.460938 156.503906 C 3.144531 156.160156 2.863281 155.792969 2.621094 155.390625 C 2.375 154.992188 2.171875 154.574219 2.011719 154.136719 C 1.847656 153.699219 1.734375 153.246094 1.660156 152.785156 C 1.589844 152.324219 1.5625 151.859375 1.582031 151.394531 Z M 1.582031 151.394531 " fill-opacity="0.83" fill-rule="nonzero"/><path fill="#ffba52" d="M 119.8125 199.730469 C 119.84375 199.289062 119.917969 198.855469 120.035156 198.429688 C 120.148438 198.003906 120.304688 197.589844 120.503906 197.195312 C 120.699219 196.796875 120.929688 196.425781 121.199219 196.074219 C 121.46875 195.722656 121.769531 195.398438 122.101562 195.105469 C 122.433594 194.8125 122.789062 194.550781 123.167969 194.328125 C 123.550781 194.105469 123.953125 193.917969 124.367188 193.769531 C 124.785156 193.625 125.214844 193.519531 125.652344 193.453125 C 126.089844 193.390625 126.53125 193.367188 126.972656 193.390625 C 127.417969 193.410156 127.851562 193.476562 128.28125 193.582031 C 128.710938 193.6875 129.128906 193.832031 129.53125 194.019531 C 129.929688 194.203125 130.3125 194.429688 130.671875 194.6875 C 131.027344 194.949219 131.359375 195.238281 131.660156 195.5625 C 131.960938 195.886719 132.230469 196.238281 132.464844 196.613281 C 132.699219 196.988281 132.894531 197.382812 133.050781 197.796875 C 133.207031 198.210938 133.324219 198.636719 133.398438 199.070312 C 133.472656 199.507812 133.503906 199.945312 133.496094 200.390625 C 133.484375 200.832031 133.429688 201.269531 133.335938 201.699219 C 133.242188 202.132812 133.105469 202.550781 132.929688 202.957031 C 132.75 203.363281 132.539062 203.746094 132.285156 204.113281 C 132.035156 204.476562 131.75 204.8125 131.433594 205.121094 C 131.117188 205.429688 130.773438 205.707031 130.402344 205.949219 C 130.03125 206.191406 129.644531 206.398438 129.234375 206.5625 C 128.824219 206.730469 128.398438 206.859375 127.964844 206.941406 C 127.53125 207.027344 127.09375 207.070312 126.648438 207.070312 C 126.183594 207.054688 125.722656 206.992188 125.269531 206.886719 C 124.816406 206.78125 124.378906 206.628906 123.953125 206.4375 C 123.53125 206.242188 123.128906 206.007812 122.75 205.738281 C 122.371094 205.464844 122.023438 205.160156 121.707031 204.816406 C 121.390625 204.476562 121.109375 204.109375 120.863281 203.710938 C 120.617188 203.316406 120.414062 202.898438 120.253906 202.464844 C 120.089844 202.027344 119.972656 201.578125 119.898438 201.121094 C 119.824219 200.660156 119.792969 200.199219 119.8125 199.730469 Z M 119.8125 199.730469 " fill-opacity="0.83" fill-rule="nonzero"/><path fill="#ffba52" d="M 168.121094 16.804688 C 168.167969 16.1875 168.324219 15.597656 168.589844 15.039062 C 168.859375 14.480469 169.222656 13.992188 169.675781 13.570312 C 170.128906 13.148438 170.644531 12.824219 171.222656 12.597656 C 171.800781 12.371094 172.398438 12.257812 173.019531 12.257812 C 173.636719 12.257812 174.238281 12.371094 174.8125 12.597656 C 175.390625 12.824219 175.90625 13.148438 176.359375 13.570312 C 176.816406 13.992188 177.175781 14.480469 177.445312 15.039062 C 177.714844 15.597656 177.871094 16.1875 177.914062 16.804688 C 177.871094 17.421875 177.714844 18.007812 177.445312 18.566406 C 177.175781 19.125 176.816406 19.613281 176.359375 20.035156 C 175.90625 20.457031 175.390625 20.78125 174.8125 21.007812 C 174.238281 21.234375 173.636719 21.347656 173.019531 21.347656 C 172.398438 21.347656 171.800781 21.234375 171.222656 21.007812 C 170.644531 20.78125 170.128906 20.457031 169.675781 20.035156 C 169.222656 19.613281 168.859375 19.125 168.589844 18.566406 C 168.324219 18.007812 168.167969 17.421875 168.121094 16.804688 Z M 168.121094 16.804688 " fill-opacity="0.83" fill-rule="nonzero"/><path fill="#371a45" d="M 123.085938 420.027344 C 115.402344 420.027344 108.789062 418.632812 103.410156 415.902344 C 95.046875 411.628906 89.867188 403.039062 89.867188 393.480469 L 89.867188 368.863281 C 82.683594 359.855469 83.113281 342.136719 83.148438 341.347656 C 83.183594 340.5625 85.917969 263.921875 85.863281 249.449219 C 85.808594 235.730469 98.980469 228.996094 105.949219 227.351562 C 106.929688 227.117188 107.949219 227.332031 108.734375 227.941406 L 134.769531 247.894531 C 135.554688 248.484375 136.019531 249.398438 136.074219 250.378906 L 143.3125 400.5 C 143.402344 402.339844 141.988281 403.894531 140.148438 403.984375 C 138.308594 404.089844 136.753906 402.664062 136.664062 400.824219 L 129.5 252.238281 L 106.039062 234.265625 C 102.25 235.515625 92.492188 239.695312 92.527344 249.433594 C 92.582031 264.027344 89.917969 338.417969 89.792969 341.5625 C 89.652344 346.296875 90.4375 359.855469 95.621094 365.324219 C 96.210938 365.949219 96.53125 366.753906 96.53125 367.609375 L 96.53125 393.460938 C 96.53125 400.519531 100.335938 406.824219 106.449219 409.953125 C 111.953125 412.773438 119.242188 413.847656 128.085938 413.148438 C 129.910156 413.007812 131.519531 414.382812 131.660156 416.203125 C 131.804688 418.027344 130.429688 419.632812 128.605469 419.777344 C 126.710938 419.957031 124.871094 420.027344 123.085938 420.027344 Z M 123.085938 420.027344 " fill-opacity="1" fill-rule="nonzero"/><path fill="#ffffff" d="M 128.355469 416.488281 C 117.632812 417.328125 110.148438 415.597656 104.929688 412.933594 C 97.65625 409.21875 93.191406 401.644531 93.191406 393.480469 L 93.191406 367.628906 C 85.917969 359.929688 86.472656 341.457031 86.472656 341.457031 C 86.472656 341.457031 89.242188 264.136719 89.1875 249.449219 C 89.132812 234.765625 106.714844 230.601562 106.714844 230.601562 L 132.75 250.558594 L 139.988281 400.679688 Z M 128.355469 416.488281 " fill-opacity="1" fill-rule="nonzero"/><path fill="#ffffff" d="M 106.734375 230.601562 C 106.734375 230.601562 89.167969 234.765625 89.207031 249.449219 C 89.257812 264.136719 86.488281 341.457031 86.488281 341.457031 C 86.488281 341.457031 85.933594 359.929688 93.207031 367.628906 L 93.207031 393.480469 C 93.207031 401.644531 97.675781 409.21875 104.949219 412.933594 C 110.164062 415.597656 117.652344 417.328125 128.355469 416.488281 Z M 106.734375 230.601562 " fill-opacity="1" fill-rule="nonzero"/><path fill="#371a45" d="M 123.085938 420.027344 C 115.402344 420.027344 108.789062 418.632812 103.410156 415.902344 C 95.046875 411.628906 89.867188 403.039062 89.867188 393.480469 L 89.867188 368.863281 C 82.683594 359.855469 83.113281 342.136719 83.148438 341.347656 C 83.183594 340.5625 85.917969 263.921875 85.863281 249.449219 C 85.808594 235.730469 98.980469 228.996094 105.949219 227.351562 C 107.734375 226.921875 109.523438 228.03125 109.949219 229.816406 C 110.378906 231.601562 109.273438 233.390625 107.484375 233.816406 C 106.878906 233.960938 92.476562 237.585938 92.511719 249.414062 C 92.5625 264.011719 89.902344 338.402344 89.777344 341.546875 C 89.632812 346.28125 90.421875 359.839844 95.601562 365.304688 C 96.191406 365.929688 96.511719 366.734375 96.511719 367.59375 L 96.511719 393.445312 C 96.511719 400.5 100.320312 406.808594 106.429688 409.933594 C 111.953125 412.757812 119.222656 413.828125 128.070312 413.132812 C 129.890625 412.988281 131.5 414.363281 131.644531 416.1875 C 131.785156 418.007812 130.410156 419.617188 128.585938 419.757812 C 126.710938 419.957031 124.871094 420.027344 123.085938 420.027344 Z M 123.085938 420.027344 " fill-opacity="1" fill-rule="nonzero"/><path fill="#ffffff" d="M 346.765625 321.484375 C 345.085938 332.203125 339.886719 350.960938 323.855469 367.558594 C 323.855469 367.558594 323.554688 398.605469 295.695312 403.039062 C 295.695312 403.039062 295.765625 412.257812 295.679688 424.796875 C 295.535156 443.289062 295.015625 468.996094 293.355469 482.878906 C 290.585938 506.171875 287.816406 516.429688 287.816406 516.429688 C 287.816406 516.429688 294.714844 518.949219 300.269531 524.734375 C 305.613281 530.292969 309.707031 538.847656 305.203125 551.085938 C 303.789062 554.910156 300.164062 557.464844 296.105469 557.464844 L 230.902344 557.464844 C 225.578125 557.464844 221.273438 553.140625 221.273438 547.835938 L 221.273438 486.503906 L 206.011719 429.390625 L 205.976562 429.460938 L 184.375 480.125 L 186.070312 547.601562 C 186.214844 553.015625 181.855469 557.484375 176.441406 557.484375 L 99.28125 557.484375 C 94.621094 557.484375 90.5625 554.160156 89.742188 549.566406 C 87.972656 539.527344 90.546875 530.203125 95.851562 523.519531 C 100.605469 517.535156 107.574219 513.695312 115.578125 513.390625 L 116.957031 466.296875 C 117.152344 459.8125 117.796875 453.347656 118.867188 446.949219 L 126.675781 400.679688 C 126.675781 400.679688 118.636719 355.070312 123.90625 326.789062 C 129.175781 298.507812 175.136719 270.496094 175.136719 270.496094 C 190.753906 275.621094 205.496094 265.601562 219.84375 249.289062 L 266 245.234375 C 277.253906 244.25 288.566406 246.804688 298.214844 252.703125 C 302.164062 255.09375 306.542969 258.007812 311.007812 261.402344 L 311.027344 261.402344 L 311.027344 261.421875 C 311.046875 261.4375 311.082031 261.457031 311.117188 261.492188 C 324.339844 271.53125 338.421875 285.878906 345.15625 304.566406 C 347.121094 309.976562 347.660156 315.800781 346.765625 321.484375 Z M 346.765625 321.484375 " fill-opacity="1" fill-rule="nonzero"/><path fill="#371a45" d="M 296.089844 560.804688 L 230.886719 560.804688 C 223.738281 560.804688 217.929688 555 217.929688 547.835938 L 217.929688 486.933594 L 205.28125 439.570312 L 187.714844 480.769531 L 189.394531 547.515625 C 189.484375 551.03125 188.179688 554.375 185.714844 556.894531 C 183.25 559.410156 179.960938 560.804688 176.441406 560.804688 L 99.28125 560.804688 C 92.957031 560.804688 87.5625 556.320312 86.472656 550.140625 C 84.613281 539.546875 87.148438 529.023438 93.402344 521.269531 C 98.300781 515.214844 104.929688 511.425781 112.34375 510.355469 L 113.632812 466.210938 C 113.828125 459.597656 114.488281 452.933594 115.578125 446.414062 L 123.296875 400.714844 C 122.332031 395.105469 115.578125 353.371094 120.636719 326.21875 C 126.105469 296.8125 171.472656 268.886719 173.402344 267.707031 C 174.242188 267.207031 175.242188 267.082031 176.171875 267.386719 C 188.539062 271.441406 201.617188 265.011719 217.359375 247.144531 C 217.929688 246.503906 218.71875 246.109375 219.558594 246.039062 L 265.710938 241.984375 C 277.667969 240.929688 289.816406 243.75 299.949219 249.914062 C 316.90625 260.242188 339.0625 277.910156 348.285156 303.472656 C 350.410156 309.371094 351.019531 315.785156 350.035156 322.035156 C 348.445312 332.21875 343.335938 351.710938 327.089844 369.003906 C 326.625 375.1875 323.214844 400.195312 299.019531 405.824219 C 299.074219 417.578125 299.089844 462.777344 296.644531 483.324219 C 294.660156 500.027344 292.675781 510.066406 291.675781 514.550781 C 295.945312 516.660156 304.058594 521.609375 308.097656 530.308594 C 311.171875 536.9375 311.242188 544.332031 308.3125 552.285156 C 306.433594 557.375 301.519531 560.804688 296.089844 560.804688 Z M 205.996094 426.066406 C 206.066406 426.066406 206.15625 426.066406 206.226562 426.066406 C 207.640625 426.171875 208.835938 427.15625 209.210938 428.53125 L 224.472656 485.644531 C 224.542969 485.933594 224.578125 486.21875 224.578125 486.503906 L 224.578125 547.851562 C 224.578125 551.335938 227.402344 554.160156 230.886719 554.160156 L 296.089844 554.160156 C 298.734375 554.160156 301.144531 552.480469 302.074219 549.960938 C 304.363281 543.726562 304.363281 538.0625 302.058594 533.078125 C 297.714844 523.699219 286.761719 519.609375 286.65625 519.574219 C 285.027344 518.984375 284.136719 517.25 284.582031 515.570312 C 284.617188 515.464844 287.332031 505.191406 290.03125 482.503906 C 292.746094 459.6875 292.355469 403.628906 292.355469 403.074219 C 292.335938 401.429688 293.535156 400.019531 295.160156 399.769531 C 319.960938 395.820312 320.496094 368.683594 320.515625 367.539062 C 320.535156 366.683594 320.855469 365.878906 321.445312 365.253906 C 337.097656 349.050781 341.957031 330.558594 343.460938 320.984375 C 344.261719 315.820312 343.761719 310.550781 342.03125 305.707031 C 333.46875 281.964844 312.546875 265.351562 296.5 255.578125 C 287.566406 250.148438 276.84375 247.664062 266.300781 248.59375 L 221.46875 252.523438 C 210.605469 264.671875 194.453125 279.285156 175.636719 274.15625 C 168.382812 278.820312 131.644531 303.457031 127.175781 327.433594 C 122.082031 354.800781 129.875 399.679688 129.945312 400.125 C 130.015625 400.5 130.015625 400.875 129.945312 401.25 L 122.136719 447.503906 C 121.082031 453.722656 120.457031 460.082031 120.277344 466.386719 L 118.902344 513.480469 C 118.847656 515.230469 117.457031 516.640625 115.703125 516.714844 C 109.003906 516.964844 102.910156 520.074219 98.566406 525.433594 C 93.511719 531.703125 91.472656 540.277344 93.011719 548.980469 C 93.527344 551.980469 96.15625 554.140625 99.265625 554.140625 L 176.40625 554.140625 C 178.121094 554.140625 179.726562 553.460938 180.925781 552.230469 C 182.121094 550.996094 182.765625 549.390625 182.710938 547.675781 L 181.015625 480.199219 C 180.996094 479.714844 181.085938 479.25 181.28125 478.804688 L 202.902344 428.066406 C 203.457031 426.851562 204.671875 426.066406 205.996094 426.066406 Z M 205.996094 426.066406 " fill-opacity="1" fill-rule="nonzero"/><path fill="#ffffff" d="M 276.71875 328.058594 C 277.273438 327.96875 285.226562 328.003906 290.460938 328.023438 C 293.015625 328.039062 295.089844 330.058594 295.160156 332.613281 L 295.695312 350.585938 C 295.785156 353.320312 293.550781 355.550781 290.816406 355.460938 C 284.921875 355.285156 275.96875 355.085938 276.164062 355.640625 Z M 276.71875 328.058594 " fill-opacity="1" fill-rule="nonzero"/><path fill="#371a45" d="M 276.164062 358.964844 C 274.773438 358.964844 273.46875 358.089844 273.003906 356.675781 C 272.664062 355.640625 272.859375 354.460938 273.503906 353.585938 C 274.683594 351.996094 274.984375 351.621094 290.925781 352.121094 C 291.460938 352.15625 291.800781 351.871094 291.960938 351.710938 C 292.121094 351.550781 292.390625 351.210938 292.371094 350.675781 L 291.835938 332.703125 C 291.820312 331.933594 291.191406 331.34375 290.441406 331.328125 C 279.507812 331.253906 277.46875 331.308594 277.09375 331.34375 C 275.34375 331.539062 273.734375 330.34375 273.433594 328.59375 C 273.128906 326.769531 274.359375 325.074219 276.164062 324.769531 C 276.59375 324.699219 277.09375 324.609375 290.460938 324.699219 C 294.820312 324.714844 298.339844 328.164062 298.464844 332.523438 L 299 350.496094 C 299.074219 352.710938 298.214844 354.890625 296.644531 356.445312 C 295.070312 358.015625 292.925781 358.875 290.691406 358.804688 C 281.417969 358.515625 278.398438 358.640625 277.46875 358.714844 C 277.378906 358.75 277.292969 358.785156 277.183594 358.820312 C 276.863281 358.910156 276.503906 358.964844 276.164062 358.964844 Z M 277.253906 331.328125 C 277.21875 331.328125 277.167969 331.34375 277.113281 331.34375 C 277.183594 331.34375 277.21875 331.34375 277.253906 331.328125 Z M 277.253906 331.328125 " fill-opacity="1" fill-rule="nonzero"/><path fill="#ffffff" d="M 188.554688 305.296875 L 263.28125 303.421875 C 273.21875 303.171875 281.417969 311.15625 281.417969 321.109375 L 281.417969 360.410156 C 281.417969 370.183594 273.503906 378.097656 263.730469 378.097656 L 189.769531 378.097656 C 180.140625 378.097656 172.277344 370.398438 172.082031 360.769531 L 171.3125 323.339844 C 171.117188 313.605469 178.835938 305.527344 188.554688 305.296875 Z M 188.554688 305.296875 " fill-opacity="1" fill-rule="nonzero"/><path fill="#371a45" d="M 263.730469 381.421875 L 189.769531 381.421875 C 178.421875 381.421875 168.988281 372.183594 168.757812 360.839844 L 167.988281 323.414062 C 167.757812 311.871094 176.941406 302.261719 188.484375 301.972656 L 263.210938 300.097656 C 268.910156 299.957031 274.324219 302.082031 278.417969 306.066406 C 282.507812 310.050781 284.761719 315.390625 284.761719 321.109375 L 284.761719 360.410156 C 284.761719 371.988281 275.324219 381.421875 263.730469 381.421875 Z M 188.644531 308.621094 C 180.765625 308.816406 174.476562 315.390625 174.652344 323.269531 L 175.421875 360.695312 C 175.582031 368.449219 182.015625 374.757812 189.789062 374.757812 L 263.746094 374.757812 C 271.664062 374.757812 278.113281 368.308594 278.113281 360.394531 L 278.113281 321.089844 C 278.113281 317.175781 276.578125 313.53125 273.769531 310.800781 C 270.984375 308.066406 267.285156 306.601562 263.390625 306.726562 Z M 188.554688 305.296875 Z M 188.554688 305.296875 " fill-opacity="1" fill-rule="nonzero"/><path fill="#371a45" d="M 243.984375 381.421875 C 242.144531 381.421875 240.660156 379.9375 240.660156 378.097656 L 240.660156 349.746094 L 220.34375 337.402344 C 219.34375 336.792969 218.734375 335.722656 218.734375 334.558594 L 218.734375 304.457031 C 218.734375 302.617188 220.21875 301.132812 222.058594 301.132812 C 223.898438 301.132812 225.382812 302.617188 225.382812 304.457031 L 225.382812 332.703125 L 245.699219 345.046875 C 246.699219 345.65625 247.308594 346.726562 247.308594 347.886719 L 247.308594 378.117188 C 247.324219 379.9375 245.824219 381.421875 243.984375 381.421875 Z M 243.984375 381.421875 " fill-opacity="1" fill-rule="nonzero"/><path fill="#371a45" d="M 207.390625 381.421875 C 196.398438 381.421875 187.554688 372.808594 187.269531 361.839844 L 186.195312 322.269531 C 185.910156 311.40625 194.164062 302.347656 205.011719 301.632812 L 207.175781 301.492188 C 208.996094 301.382812 210.585938 302.761719 210.710938 304.601562 C 210.835938 306.441406 209.445312 308.011719 207.601562 308.136719 L 205.441406 308.28125 C 198.1875 308.761719 192.648438 314.820312 192.84375 322.089844 L 193.914062 361.660156 C 194.113281 369.023438 200.027344 374.773438 207.390625 374.773438 C 209.230469 374.773438 210.710938 376.257812 210.710938 378.097656 C 210.710938 379.9375 209.230469 381.421875 207.390625 381.421875 Z M 207.390625 381.421875 " fill-opacity="1" fill-rule="nonzero"/><path fill="#22a7f0" d="M 269.5 329.613281 C 269.5 330.34375 269.445312 331.066406 269.335938 331.78125 C 269.226562 332.5 269.0625 333.195312 268.847656 333.871094 C 268.628906 334.546875 268.367188 335.1875 268.050781 335.796875 C 267.738281 336.402344 267.382812 336.964844 266.984375 337.480469 C 266.585938 338 266.148438 338.460938 265.679688 338.867188 C 265.210938 339.273438 264.714844 339.613281 264.195312 339.894531 C 263.671875 340.175781 263.136719 340.386719 262.582031 340.527344 C 262.027344 340.671875 261.46875 340.742188 260.90625 340.742188 C 260.339844 340.742188 259.78125 340.671875 259.230469 340.527344 C 258.675781 340.386719 258.136719 340.175781 257.617188 339.894531 C 257.09375 339.613281 256.601562 339.273438 256.128906 338.867188 C 255.660156 338.460938 255.226562 338 254.828125 337.480469 C 254.429688 336.964844 254.074219 336.402344 253.757812 335.796875 C 253.445312 335.1875 253.179688 334.546875 252.964844 333.871094 C 252.75 333.195312 252.585938 332.5 252.476562 331.78125 C 252.367188 331.066406 252.3125 330.34375 252.3125 329.613281 C 252.3125 328.878906 252.367188 328.15625 252.476562 327.441406 C 252.585938 326.722656 252.75 326.027344 252.964844 325.351562 C 253.179688 324.675781 253.445312 324.035156 253.757812 323.429688 C 254.074219 322.820312 254.429688 322.257812 254.828125 321.742188 C 255.226562 321.222656 255.660156 320.761719 256.128906 320.355469 C 256.601562 319.949219 257.09375 319.609375 257.617188 319.328125 C 258.136719 319.050781 258.675781 318.835938 259.230469 318.695312 C 259.78125 318.554688 260.339844 318.480469 260.90625 318.480469 C 261.46875 318.480469 262.027344 318.554688 262.582031 318.695312 C 263.136719 318.835938 263.671875 319.050781 264.195312 319.328125 C 264.714844 319.609375 265.210938 319.949219 265.679688 320.355469 C 266.148438 320.761719 266.585938 321.222656 266.984375 321.742188 C 267.382812 322.257812 267.738281 322.820312 268.050781 323.429688 C 268.367188 324.035156 268.628906 324.675781 268.847656 325.351562 C 269.0625 326.027344 269.226562 326.722656 269.335938 327.441406 C 269.445312 328.15625 269.5 328.878906 269.5 329.613281 Z M 269.5 329.613281 " fill-opacity="1" fill-rule="nonzero"/><path fill="#371a45" d="M 260.90625 344.082031 C 254.328125 344.082031 248.988281 337.597656 248.988281 329.628906 C 248.988281 321.660156 254.328125 315.175781 260.90625 315.175781 C 267.480469 315.175781 272.824219 321.660156 272.824219 329.628906 C 272.824219 337.597656 267.480469 344.082031 260.90625 344.082031 Z M 260.90625 321.804688 C 258.046875 321.804688 255.632812 325.378906 255.632812 329.613281 C 255.632812 333.84375 258.046875 337.417969 260.90625 337.417969 C 263.765625 337.417969 266.175781 333.84375 266.175781 329.613281 C 266.175781 325.394531 263.765625 321.804688 260.90625 321.804688 Z M 260.90625 321.804688 " fill-opacity="1" fill-rule="nonzero"/><path fill="#ffffff" d="M 119.476562 335.8125 L 118.921875 349.65625 C 118.742188 354.195312 122.457031 357.929688 126.980469 357.765625 L 167.808594 356.355469 C 171.597656 356.230469 174.617188 353.175781 174.726562 349.386719 L 174.957031 339.832031 C 175.0625 335.8125 171.828125 332.488281 167.792969 332.488281 L 124.40625 332.488281 Z M 119.476562 335.8125 " fill-opacity="1" fill-rule="nonzero"/><path fill="#371a45" d="M 126.730469 361.109375 C 123.78125 361.109375 120.921875 359.929688 118.832031 357.820312 C 116.652344 355.640625 115.472656 352.605469 115.597656 349.53125 L 116.152344 335.6875 C 116.222656 333.84375 117.8125 332.417969 119.617188 332.488281 C 120.152344 332.503906 120.671875 332.667969 121.101562 332.898438 C 121.082031 332.753906 121.082031 332.613281 121.082031 332.46875 C 121.082031 330.628906 122.566406 329.148438 124.40625 329.148438 L 167.808594 329.148438 C 170.667969 329.148438 173.332031 330.273438 175.316406 332.308594 C 177.296875 334.347656 178.351562 337.042969 178.296875 339.902344 L 178.066406 349.460938 C 177.921875 354.996094 173.472656 359.480469 167.953125 359.679688 L 127.121094 361.089844 C 126.980469 361.109375 126.855469 361.109375 126.730469 361.109375 Z M 122.78125 335.398438 C 122.796875 335.578125 122.816406 335.773438 122.796875 335.953125 L 122.246094 349.800781 C 122.191406 351.050781 122.65625 352.246094 123.546875 353.140625 C 124.441406 354.035156 125.621094 354.496094 126.871094 354.460938 L 167.703125 353.050781 C 169.722656 352.980469 171.347656 351.335938 171.402344 349.316406 L 171.632812 339.757812 C 171.667969 338.722656 171.277344 337.738281 170.542969 336.988281 C 169.8125 336.238281 168.847656 335.828125 167.792969 335.828125 L 124.40625 335.828125 C 123.816406 335.8125 123.261719 335.667969 122.78125 335.398438 Z M 122.78125 335.398438 " fill-opacity="1" fill-rule="nonzero"/><path fill="#371a45" d="M 295.695312 406.378906 C 295.589844 406.378906 295.480469 406.378906 295.390625 406.359375 C 287.886719 405.664062 278.933594 392.765625 276.96875 379.8125 C 274.984375 366.753906 280.527344 356.5 292.175781 351.675781 C 293.875 350.976562 295.820312 351.78125 296.519531 353.480469 C 297.214844 355.175781 296.410156 357.125 294.714844 357.820312 C 283.546875 362.449219 282.472656 371.792969 283.546875 378.8125 C 285.207031 389.78125 292.820312 399.429688 296 399.734375 C 297.824219 399.910156 299.179688 401.519531 299 403.339844 C 298.859375 405.074219 297.394531 406.378906 295.695312 406.378906 Z M 295.695312 406.378906 " fill-opacity="1" fill-rule="nonzero"/><path fill="#371a45" d="M 290.871094 328.398438 L 296.429688 314.425781 L 296.195312 315.695312 C 297.070312 308.871094 298.519531 302.261719 301.109375 295.898438 C 302.003906 293.828125 303.023438 291.828125 304.308594 290.023438 C 301.433594 298.238281 301.914062 307.15625 302.84375 315.605469 C 302.84375 316.050781 302.773438 316.480469 302.609375 316.875 L 297.054688 330.84375 C 295.320312 334.882812 289.371094 332.542969 290.871094 328.398438 Z M 290.871094 328.398438 " fill-opacity="1" fill-rule="nonzero"/><path fill="#371a45" d="M 297.195312 347.601562 L 305.757812 355.640625 L 294.195312 353.550781 Z M 297.195312 347.601562 " fill-opacity="1" fill-rule="nonzero"/><path fill="#371a45" d="M 324.339844 370.378906 C 324.320312 370.378906 324.320312 370.378906 324.304688 370.378906 C 322.464844 370.363281 320.980469 368.863281 321 367.019531 C 321.265625 336.542969 297.195312 323.664062 296.179688 323.125 C 294.550781 322.269531 293.910156 320.269531 294.765625 318.640625 C 295.605469 317.015625 297.609375 316.375 299.25 317.214844 C 300.429688 317.820312 327.984375 332.417969 327.679688 367.074219 C 327.664062 368.898438 326.179688 370.378906 324.339844 370.378906 Z M 324.339844 370.378906 " fill-opacity="1" fill-rule="nonzero"/><path fill="#371a45" d="M 340.902344 331.558594 C 323.410156 307.191406 301.558594 310.960938 301.34375 311.015625 L 300.109375 304.476562 C 301.164062 304.277344 326.375 299.917969 346.300781 327.683594 Z M 340.902344 331.558594 " fill-opacity="1" fill-rule="nonzero"/><path fill="#371a45" d="M 274.359375 264.707031 C 284.921875 283.699219 291.710938 304.691406 295.554688 326.074219 L 288.941406 326.859375 C 288.171875 316.25 286.636719 305.691406 284.222656 295.308594 C 281.777344 284.859375 278.667969 274.550781 274.359375 264.707031 Z M 274.359375 264.707031 " fill-opacity="1" fill-rule="nonzero"/><path fill="#371a45" d="M 315.121094 158.550781 C 312.867188 238.910156 187.144531 292.703125 112.378906 219.8125 L 92.691406 182.882812 C 73.035156 77.980469 215.714844 0.195312 296.605469 89.179688 C 296.605469 89.179688 319.40625 123.105469 315.121094 158.550781 Z M 315.121094 158.550781 " fill-opacity="1" fill-rule="nonzero"/><path fill="#ffffff" d="M 314.117188 169.003906 C 353.804688 157.121094 311.867188 80.605469 295.035156 86.789062 " fill-opacity="1" fill-rule="nonzero"/><path fill="#ffffff" d="M 315.246094 152.691406 C 315.246094 154.648438 315.195312 156.601562 315.097656 158.554688 C 315 160.507812 314.851562 162.457031 314.65625 164.40625 C 314.460938 166.351562 314.21875 168.292969 313.925781 170.226562 C 313.632812 172.160156 313.289062 174.085938 312.898438 176.003906 C 312.511719 177.921875 312.074219 179.832031 311.589844 181.726562 C 311.101562 183.625 310.570312 185.511719 309.992188 187.382812 C 309.410156 189.253906 308.785156 191.109375 308.113281 192.949219 C 307.441406 194.792969 306.722656 196.617188 305.957031 198.421875 C 305.191406 200.230469 304.382812 202.015625 303.53125 203.785156 C 302.675781 205.554688 301.777344 207.300781 300.839844 209.023438 C 299.898438 210.75 298.914062 212.449219 297.886719 214.128906 C 296.859375 215.804688 295.792969 217.457031 294.683594 219.082031 C 293.574219 220.710938 292.421875 222.308594 291.234375 223.878906 C 290.042969 225.449219 288.816406 226.992188 287.550781 228.503906 C 286.285156 230.015625 284.980469 231.496094 283.636719 232.945312 C 282.296875 234.394531 280.921875 235.808594 279.507812 237.191406 C 278.097656 238.574219 276.652344 239.921875 275.171875 241.234375 C 273.691406 242.550781 272.179688 243.828125 270.636719 245.066406 C 269.09375 246.308594 267.519531 247.511719 265.917969 248.675781 C 264.3125 249.839844 262.679688 250.964844 261.019531 252.054688 C 259.359375 253.140625 257.675781 254.1875 255.960938 255.191406 C 254.25 256.195312 252.511719 257.160156 250.75 258.082031 C 248.988281 259.003906 247.207031 259.882812 245.402344 260.71875 C 243.597656 261.554688 241.773438 262.347656 239.925781 263.097656 C 238.082031 263.84375 236.21875 264.546875 234.339844 265.207031 C 232.460938 265.867188 230.566406 266.480469 228.652344 267.046875 C 226.742188 267.613281 224.820312 268.136719 222.882812 268.613281 C 220.945312 269.085938 218.996094 269.515625 217.039062 269.898438 C 215.082031 270.277344 213.113281 270.613281 211.140625 270.898438 C 209.164062 271.1875 207.183594 271.425781 205.195312 271.617188 C 203.207031 271.808594 201.21875 271.953125 199.222656 272.046875 C 197.230469 272.144531 195.234375 272.191406 193.238281 272.191406 C 191.238281 272.191406 189.246094 272.144531 187.25 272.046875 C 185.253906 271.953125 183.265625 271.808594 181.277344 271.617188 C 179.289062 271.425781 177.308594 271.1875 175.335938 270.898438 C 173.359375 270.613281 171.394531 270.277344 169.433594 269.898438 C 167.476562 269.515625 165.527344 269.085938 163.589844 268.613281 C 161.65625 268.136719 159.730469 267.613281 157.820312 267.046875 C 155.910156 266.480469 154.015625 265.867188 152.132812 265.207031 C 150.253906 264.546875 148.390625 263.84375 146.546875 263.097656 C 144.703125 262.347656 142.875 261.554688 141.070312 260.71875 C 139.265625 259.882812 137.484375 259.003906 135.722656 258.082031 C 133.960938 257.160156 132.226562 256.195312 130.511719 255.191406 C 128.800781 254.1875 127.113281 253.140625 125.453125 252.054688 C 123.792969 250.964844 122.160156 249.839844 120.558594 248.675781 C 118.953125 247.511719 117.378906 246.308594 115.835938 245.066406 C 114.292969 243.828125 112.78125 242.550781 111.300781 241.234375 C 109.820312 239.921875 108.375 238.574219 106.964844 237.191406 C 105.550781 235.808594 104.175781 234.394531 102.835938 232.945312 C 101.496094 231.496094 100.191406 230.015625 98.921875 228.503906 C 97.65625 226.992188 96.429688 225.449219 95.238281 223.878906 C 94.050781 222.308594 92.902344 220.710938 91.792969 219.082031 C 90.683594 217.457031 89.613281 215.804688 88.585938 214.128906 C 87.5625 212.449219 86.578125 210.75 85.636719 209.023438 C 84.695312 207.300781 83.796875 205.554688 82.941406 203.785156 C 82.089844 202.015625 81.28125 200.230469 80.515625 198.421875 C 79.753906 196.617188 79.035156 194.792969 78.359375 192.949219 C 77.6875 191.109375 77.0625 189.253906 76.484375 187.382812 C 75.902344 185.511719 75.371094 183.625 74.886719 181.726562 C 74.402344 179.832031 73.964844 177.921875 73.574219 176.003906 C 73.183594 174.085938 72.84375 172.160156 72.550781 170.226562 C 72.257812 168.292969 72.011719 166.351562 71.816406 164.40625 C 71.621094 162.457031 71.472656 160.507812 71.375 158.554688 C 71.277344 156.601562 71.230469 154.648438 71.230469 152.691406 C 71.230469 150.738281 71.277344 148.78125 71.375 146.828125 C 71.472656 144.875 71.621094 142.925781 71.816406 140.980469 C 72.011719 139.03125 72.257812 137.09375 72.550781 135.15625 C 72.84375 133.222656 73.183594 131.296875 73.574219 129.378906 C 73.964844 127.460938 74.402344 125.554688 74.886719 123.65625 C 75.371094 121.757812 75.902344 119.875 76.484375 118.003906 C 77.0625 116.132812 77.6875 114.273438 78.359375 112.433594 C 79.035156 110.59375 79.753906 108.769531 80.515625 106.960938 C 81.28125 105.15625 82.089844 103.367188 82.941406 101.597656 C 83.796875 99.832031 84.695312 98.085938 85.636719 96.359375 C 86.578125 94.636719 87.5625 92.933594 88.585938 91.257812 C 89.613281 89.578125 90.683594 87.925781 91.792969 86.300781 C 92.902344 84.675781 94.050781 83.078125 95.238281 81.503906 C 96.429688 79.933594 97.65625 78.394531 98.921875 76.882812 C 100.191406 75.371094 101.496094 73.890625 102.835938 72.441406 C 104.175781 70.992188 105.550781 69.574219 106.964844 68.191406 C 108.375 66.808594 109.820312 65.460938 111.300781 64.148438 C 112.78125 62.835938 114.292969 61.558594 115.835938 60.316406 C 117.378906 59.078125 118.953125 57.875 120.558594 56.707031 C 122.160156 55.542969 123.792969 54.417969 125.453125 53.332031 C 127.113281 52.246094 128.800781 51.199219 130.511719 50.191406 C 132.226562 49.1875 133.960938 48.222656 135.722656 47.300781 C 137.484375 46.378906 139.265625 45.5 141.070312 44.664062 C 142.875 43.828125 144.703125 43.035156 146.546875 42.289062 C 148.390625 41.539062 150.253906 40.835938 152.132812 40.175781 C 154.015625 39.519531 155.910156 38.90625 157.820312 38.335938 C 159.730469 37.769531 161.65625 37.25 163.589844 36.773438 C 165.527344 36.296875 167.476562 35.871094 169.433594 35.488281 C 171.394531 35.105469 173.359375 34.773438 175.335938 34.484375 C 177.308594 34.199219 179.289062 33.957031 181.277344 33.765625 C 183.265625 33.574219 185.253906 33.429688 187.25 33.335938 C 189.246094 33.238281 191.238281 33.191406 193.238281 33.191406 C 195.234375 33.191406 197.230469 33.238281 199.222656 33.335938 C 201.21875 33.429688 203.207031 33.574219 205.195312 33.765625 C 207.183594 33.957031 209.164062 34.199219 211.140625 34.484375 C 213.113281 34.773438 215.082031 35.105469 217.039062 35.488281 C 218.996094 35.871094 220.945312 36.296875 222.882812 36.773438 C 224.820312 37.25 226.742188 37.769531 228.652344 38.335938 C 230.566406 38.90625 232.460938 39.519531 234.339844 40.175781 C 236.21875 40.835938 238.082031 41.539062 239.925781 42.289062 C 241.773438 43.035156 243.597656 43.828125 245.402344 44.664062 C 247.207031 45.5 248.988281 46.378906 250.75 47.300781 C 252.511719 48.222656 254.25 49.1875 255.960938 50.191406 C 257.675781 51.199219 259.359375 52.246094 261.019531 53.332031 C 262.679688 54.417969 264.3125 55.542969 265.917969 56.707031 C 267.519531 57.875 269.09375 59.078125 270.636719 60.316406 C 272.179688 61.558594 273.691406 62.835938 275.171875 64.148438 C 276.652344 65.460938 278.097656 66.808594 279.507812 68.191406 C 280.921875 69.574219 282.296875 70.992188 283.636719 72.441406 C 284.980469 73.890625 286.285156 75.371094 287.550781 76.882812 C 288.816406 78.394531 290.042969 79.933594 291.234375 81.503906 C 292.421875 83.078125 293.574219 84.675781 294.683594 86.300781 C 295.792969 87.925781 296.859375 89.578125 297.886719 91.257812 C 298.914062 92.933594 299.898438 94.636719 300.839844 96.359375 C 301.777344 98.085938 302.675781 99.832031 303.53125 101.597656 C 304.382812 103.367188 305.191406 105.15625 305.957031 106.960938 C 306.722656 108.769531 307.441406 110.59375 308.113281 112.433594 C 308.785156 114.273438 309.410156 116.132812 309.992188 118.003906 C 310.570312 119.875 311.101562 121.757812 311.589844 123.65625 C 312.074219 125.554688 312.511719 127.460938 312.898438 129.378906 C 313.289062 131.296875 313.632812 133.222656 313.925781 135.15625 C 314.21875 137.09375 314.460938 139.03125 314.65625 140.980469 C 314.851562 142.925781 315 144.875 315.097656 146.828125 C 315.195312 148.78125 315.246094 150.738281 315.246094 152.691406 Z M 315.246094 152.691406 " fill-opacity="1" fill-rule="nonzero"/><path fill="#371a45" d="M 315.261719 152.65625 L 315.261719 152.675781 C 315.261719 218.667969 260.636719 272.175781 193.238281 272.175781 C 125.835938 272.175781 71.230469 218.6875 71.230469 152.675781 C 71.230469 139.917969 73.265625 127.628906 77.054688 116.105469 C 77.070312 182.097656 131.695312 235.570312 199.0625 235.570312 C 253.417969 235.585938 299.484375 200.765625 315.261719 152.65625 Z M 315.261719 152.65625 " fill-opacity="0.3" fill-rule="nonzero"/><path fill="#371a45" d="M 315.121094 158.550781 C 312.867188 238.910156 187.144531 292.703125 112.378906 219.8125 L 92.691406 182.882812 C 73.035156 77.980469 215.714844 0.195312 296.605469 89.179688 C 296.605469 89.179688 319.40625 123.105469 315.121094 158.550781 Z M 315.121094 158.550781 " fill-opacity="1" fill-rule="nonzero"/><path fill="#111a28" d="M 315.121094 158.550781 C 312.867188 238.910156 187.160156 292.703125 112.378906 219.8125 L 92.691406 182.882812 C 91.046875 174.148438 90.546875 165.589844 91.027344 157.320312 C 111.453125 195.335938 152.15625 221.242188 199.0625 221.242188 C 253.132812 221.242188 299 186.796875 315.011719 139.0625 C 315.761719 145.367188 315.90625 151.941406 315.121094 158.550781 Z M 315.121094 158.550781 " fill-opacity="0.7" fill-rule="nonzero"/><path fill="#371a45" d="M 314.117188 172.324219 C 312.6875 172.324219 311.367188 171.398438 310.9375 169.949219 C 310.417969 168.199219 311.421875 166.339844 313.171875 165.804688 C 320.640625 163.570312 325.054688 158.800781 326.679688 151.246094 C 330.699219 132.59375 316.046875 103.8125 304.203125 93.523438 C 300.878906 90.628906 297.894531 89.289062 296.179688 89.914062 C 294.445312 90.539062 292.535156 89.664062 291.90625 87.929688 C 291.28125 86.199219 292.15625 84.285156 293.890625 83.660156 C 296.820312 82.589844 301.734375 82.554688 308.578125 88.503906 C 321.785156 99.988281 337.9375 130.683594 333.203125 152.65625 C 331.074219 162.535156 324.804688 169.289062 315.082031 172.199219 C 314.761719 172.289062 314.441406 172.324219 314.117188 172.324219 Z M 314.117188 172.324219 " fill-opacity="1" fill-rule="nonzero"/><path fill="#371a45" d="M 78.769531 169.84375 C 77.449219 169.84375 76.339844 168.789062 76.285156 167.449219 C 74.589844 125.660156 99.460938 79.785156 136.773438 55.898438 C 154.605469 44.484375 174.347656 38.355469 195.46875 37.675781 C 219.074219 36.90625 243.804688 43.054688 268.980469 55.917969 C 270.214844 56.542969 270.699219 58.042969 270.074219 59.273438 C 269.445312 60.507812 267.945312 60.988281 266.714844 60.363281 C 208.066406 30.386719 165.148438 43.679688 139.46875 60.113281 C 103.570312 83.089844 79.644531 127.144531 81.269531 167.253906 C 81.324219 168.628906 80.253906 169.789062 78.878906 169.84375 C 78.839844 169.84375 78.804688 169.84375 78.769531 169.84375 Z M 78.769531 169.84375 " fill-opacity="1" fill-rule="nonzero"/><path fill="#ffffff" d="M 156.035156 92.058594 C 209.460938 86.484375 254.078125 97.898438 285.457031 134.84375 C 287.117188 136.808594 290.316406 135.113281 289.636719 132.628906 C 271.949219 67.546875 213.644531 53.433594 154.550781 87.554688 C 152.300781 88.859375 153.441406 92.324219 156.035156 92.058594 Z M 156.035156 92.058594 " fill-opacity="0.5" fill-rule="nonzero"/><path fill="#ffffff" d="M 167.96875 223.277344 C 162.664062 229.726562 149.171875 227.367188 137.824219 218.023438 C 126.480469 208.683594 121.582031 195.890625 126.890625 189.441406 C 132.195312 182.992188 141.8125 190.046875 153.15625 199.390625 C 164.503906 208.753906 173.277344 216.847656 167.96875 223.277344 Z M 167.96875 223.277344 " fill-opacity="0.5" fill-rule="nonzero"/><path fill="#ffffff" d="M 130.410156 163.429688 C 130.410156 164.421875 130.332031 165.40625 130.179688 166.378906 C 130.023438 167.351562 129.796875 168.296875 129.492188 169.214844 C 129.1875 170.128906 128.816406 171 128.378906 171.824219 C 127.9375 172.652344 127.4375 173.414062 126.878906 174.117188 C 126.316406 174.816406 125.707031 175.445312 125.050781 175.996094 C 124.390625 176.546875 123.695312 177.011719 122.964844 177.394531 C 122.234375 177.773438 121.480469 178.058594 120.703125 178.253906 C 119.925781 178.445312 119.140625 178.542969 118.347656 178.542969 C 117.558594 178.542969 116.773438 178.445312 115.996094 178.253906 C 115.21875 178.058594 114.464844 177.773438 113.734375 177.394531 C 113 177.011719 112.304688 176.546875 111.648438 175.996094 C 110.988281 175.445312 110.378906 174.816406 109.820312 174.117188 C 109.261719 173.414062 108.761719 172.652344 108.320312 171.824219 C 107.878906 171 107.507812 170.128906 107.207031 169.214844 C 106.902344 168.296875 106.675781 167.351562 106.519531 166.378906 C 106.363281 165.40625 106.289062 164.421875 106.289062 163.429688 C 106.289062 162.4375 106.363281 161.453125 106.519531 160.480469 C 106.675781 159.507812 106.902344 158.5625 107.207031 157.644531 C 107.507812 156.726562 107.878906 155.855469 108.320312 155.03125 C 108.761719 154.207031 109.261719 153.445312 109.820312 152.742188 C 110.378906 152.039062 110.988281 151.414062 111.648438 150.863281 C 112.304688 150.3125 113 149.84375 113.734375 149.464844 C 114.464844 149.085938 115.21875 148.800781 115.996094 148.605469 C 116.773438 148.410156 117.558594 148.316406 118.347656 148.316406 C 119.140625 148.316406 119.925781 148.410156 120.703125 148.605469 C 121.480469 148.800781 122.234375 149.085938 122.964844 149.464844 C 123.695312 149.84375 124.390625 150.3125 125.050781 150.863281 C 125.707031 151.414062 126.316406 152.039062 126.878906 152.742188 C 127.4375 153.445312 127.9375 154.207031 128.378906 155.03125 C 128.816406 155.855469 129.1875 156.726562 129.492188 157.644531 C 129.796875 158.5625 130.023438 159.507812 130.179688 160.480469 C 130.332031 161.453125 130.410156 162.4375 130.410156 163.429688 Z M 130.410156 163.429688 " fill-opacity="0.5" fill-rule="nonzero"/><path fill="#371a45" d="M 193.238281 275.515625 C 124.121094 275.515625 67.886719 220.417969 67.886719 152.691406 C 67.886719 84.964844 124.136719 29.867188 193.238281 29.867188 C 262.335938 29.867188 318.585938 84.964844 318.585938 152.691406 C 318.585938 220.417969 262.351562 275.515625 193.238281 275.515625 Z M 193.238281 36.515625 C 127.800781 36.515625 74.550781 88.628906 74.550781 152.675781 C 74.550781 216.722656 127.800781 268.835938 193.238281 268.835938 C 258.671875 268.835938 311.921875 216.722656 311.921875 152.675781 C 311.921875 88.628906 258.691406 36.515625 193.238281 36.515625 Z M 193.238281 36.515625 " fill-opacity="1" fill-rule="nonzero"/><path fill="#ffffff" d="M 108.269531 239.605469 C 102.464844 244.234375 94.28125 244.375 88.042969 240.339844 C 80.664062 235.570312 72.660156 226.636719 66.28125 216.667969 C 60.363281 207.414062 55.84375 197.285156 54.523438 188.796875 C 54.183594 179.007812 58.683594 167.894531 69.726562 166.628906 C 75.730469 165.949219 81.648438 168.59375 85.417969 173.308594 C 89.832031 178.792969 97.03125 188.332031 103.160156 199.214844 C 106.679688 205.464844 109.84375 212.128906 111.917969 218.738281 C 111.933594 218.738281 118.242188 231.65625 108.269531 239.605469 Z M 108.269531 239.605469 " fill-opacity="1" fill-rule="nonzero"/><path fill="#371a45" d="M 97.765625 246.574219 C 93.796875 246.574219 89.777344 245.429688 86.222656 243.144531 C 70.746094 233.15625 54.058594 207.503906 51.214844 189.316406 C 51.199219 189.191406 51.179688 189.046875 51.179688 188.921875 C 50.804688 177.632812 56.328125 164.804688 69.351562 163.320312 C 76.320312 162.519531 83.46875 165.554688 88.027344 171.21875 C 95.636719 180.6875 109.253906 199.265625 115.027344 217.507812 C 117.5625 222.921875 119.742188 234.695312 110.34375 242.195312 C 106.714844 245.109375 102.265625 246.574219 97.765625 246.574219 Z M 57.84375 188.492188 C 60.488281 204.839844 75.980469 228.621094 89.847656 237.550781 C 95.03125 240.894531 101.605469 240.679688 106.199219 237 C 113.917969 230.835938 109.128906 220.617188 108.933594 220.1875 C 108.859375 220.042969 108.789062 219.882812 108.753906 219.722656 C 103.339844 202.464844 90.1875 184.527344 82.84375 175.382812 C 79.699219 171.488281 74.839844 169.378906 70.121094 169.914062 C 60.0625 171.074219 57.683594 182.042969 57.84375 188.492188 Z M 57.84375 188.492188 " fill-opacity="1" fill-rule="nonzero"/><path fill="#371a45" d="M 93.367188 245.753906 C 92.816406 245.753906 92.226562 245.699219 91.5625 245.589844 C 89.757812 245.269531 88.542969 243.554688 88.867188 241.734375 C 89.1875 239.910156 90.921875 238.714844 92.726562 239.035156 C 92.976562 239.070312 93.152344 239.089844 93.296875 239.089844 C 93.476562 237.980469 93.53125 233.246094 86.007812 218.902344 C 80.699219 208.769531 74.050781 198.589844 70.226562 193.78125 C 62.4375 183.957031 56.023438 184.777344 55.753906 184.8125 C 53.949219 185.171875 52.234375 183.972656 51.894531 182.167969 C 51.554688 180.367188 52.753906 178.613281 54.558594 178.257812 C 54.96875 178.1875 64.957031 176.417969 75.445312 189.636719 C 79.179688 194.355469 105.25 232.175781 98.945312 242.769531 C 98.230469 243.964844 96.621094 245.753906 93.367188 245.753906 Z M 93.367188 245.753906 " fill-opacity="1" fill-rule="nonzero"/><path fill="#371a45" d="M 108.269531 239.605469 C 102.464844 244.234375 94.28125 244.375 88.042969 240.339844 C 80.664062 235.570312 72.660156 226.636719 66.28125 216.667969 C 82.234375 217.703125 98.730469 211.128906 103.179688 199.214844 C 106.699219 205.464844 109.863281 212.128906 111.933594 218.738281 C 111.933594 218.738281 118.242188 231.65625 108.269531 239.605469 Z M 108.269531 239.605469 " fill-opacity="0.3" fill-rule="nonzero"/><path fill="#ffffff" d="M 222.773438 259.847656 C 214.875 275.230469 215.429688 277.175781 215.429688 277.175781 C 216.753906 296.507812 201.347656 316.070312 175.152344 312.730469 C 155.195312 329.433594 131.230469 338.4375 111.808594 337.667969 C 88.132812 336.738281 70.960938 314.121094 77.359375 291.308594 C 78.089844 288.699219 79.089844 286.09375 80.378906 283.464844 C 86.433594 271.050781 98.675781 258.5625 117.332031 245.984375 C 117.332031 245.984375 133.554688 260.742188 159.75 264.707031 C 159.339844 238.089844 172.332031 235.496094 181.585938 255.347656 C 181.585938 255.347656 188.375 264.5625 196.972656 258.738281 C 202.046875 255.308594 207.40625 249.898438 210.945312 246.039062 C 212.105469 244.769531 213.589844 243.964844 215.125 243.609375 C 218.378906 242.859375 221.96875 244.109375 223.773438 247.253906 C 225.382812 250.039062 225.738281 254.078125 222.773438 259.847656 Z M 222.773438 259.847656 " fill-opacity="1" fill-rule="nonzero"/><path fill="#371a45" d="M 114.167969 341.046875 C 113.328125 341.046875 112.507812 341.027344 111.683594 340.992188 C 99.15625 340.507812 87.722656 334.398438 80.34375 324.269531 C 73.160156 314.390625 70.90625 302.0625 74.160156 290.398438 C 78.589844 274.585938 92.492188 258.722656 115.472656 243.214844 C 116.742188 242.359375 118.4375 242.484375 119.582031 243.519531 C 119.726562 243.644531 133.875 256.238281 156.480469 260.742188 C 156.964844 248.394531 160.644531 240.625 166.84375 239.195312 C 173.027344 237.785156 179.441406 243.019531 184.445312 253.59375 C 185.605469 255.042969 189.839844 259.542969 195.113281 255.988281 C 199.902344 252.753906 205.03125 247.554688 208.515625 243.785156 C 210.980469 241.089844 214.644531 239.730469 218.289062 240.140625 C 221.863281 240.535156 224.917969 242.535156 226.6875 245.609375 C 229.1875 249.984375 228.867188 255.292969 225.738281 261.367188 C 219.773438 272.980469 218.878906 276.480469 218.769531 277.125 C 219.46875 288.074219 215.199219 299.007812 207.335938 306.421875 C 199.367188 313.945312 188.359375 317.390625 176.191406 316.195312 C 157 331.898438 134.089844 341.046875 114.167969 341.046875 Z M 117.132812 250.148438 C 96.726562 264.277344 84.433594 278.410156 80.554688 292.203125 C 77.839844 301.882812 79.714844 312.140625 85.703125 320.355469 C 91.886719 328.84375 101.445312 333.953125 111.933594 334.347656 C 130.894531 335.097656 154.320312 325.824219 173.007812 310.175781 C 173.722656 309.585938 174.652344 309.316406 175.566406 309.421875 C 189.304688 311.175781 197.9375 306.117188 202.761719 301.5625 C 209.175781 295.523438 212.660156 286.59375 212.125 277.625 C 211.910156 276.300781 212.339844 272.871094 219.824219 258.3125 C 221.863281 254.34375 222.21875 251.183594 220.914062 248.878906 C 220.21875 247.664062 219.003906 246.878906 217.554688 246.71875 C 216.019531 246.539062 214.464844 247.109375 213.429688 248.253906 C 209.710938 252.289062 204.171875 257.863281 198.867188 261.472656 C 189.96875 267.492188 181.925781 261.367188 178.925781 257.292969 C 178.800781 257.113281 178.671875 256.917969 178.585938 256.722656 C 174.707031 248.394531 170.542969 245.144531 168.34375 245.664062 C 166.433594 246.109375 162.878906 250.628906 163.09375 264.617188 C 163.109375 265.601562 162.699219 266.53125 161.949219 267.171875 C 161.199219 267.816406 160.234375 268.101562 159.269531 267.957031 C 137.433594 264.6875 122.40625 254.292969 117.132812 250.148438 Z M 218.734375 277.230469 Z M 218.628906 276.265625 C 218.644531 276.355469 218.664062 276.425781 218.683594 276.515625 C 218.683594 276.445312 218.664062 276.355469 218.628906 276.265625 Z M 218.628906 276.265625 Z M 218.628906 276.265625 " fill-opacity="1" fill-rule="nonzero"/><path fill="#371a45" d="M 111.917969 284.449219 C 110.398438 284.449219 109.039062 283.410156 108.683594 281.875 C 108.269531 280.089844 109.378906 278.300781 111.164062 277.875 C 135.484375 272.191406 158.125 261.777344 158.355469 261.671875 C 160.019531 260.902344 162.003906 261.617188 162.769531 263.296875 C 163.539062 264.957031 162.824219 266.941406 161.144531 267.707031 C 160.199219 268.15625 137.664062 278.515625 112.667969 284.359375 C 112.433594 284.429688 112.167969 284.449219 111.917969 284.449219 Z M 111.917969 284.449219 " fill-opacity="1" fill-rule="nonzero"/><path fill="#371a45" d="M 162.609375 264.207031 L 163.574219 286.878906 L 156.085938 265.566406 C 154.53125 260.597656 162.074219 259.042969 162.609375 264.207031 Z M 162.609375 264.207031 " fill-opacity="1" fill-rule="nonzero"/><path fill="#371a45" d="M 172.632812 314.890625 L 166.753906 302.957031 L 177.671875 310.566406 Z M 172.632812 314.890625 " fill-opacity="1" fill-rule="nonzero"/><path fill="#371a45" d="M 145.242188 334.007812 C 138.039062 334.007812 129.015625 327.574219 122.886719 317.925781 C 114.328125 304.4375 113.882812 289.183594 121.671875 276.070312 C 122.601562 274.496094 124.65625 273.980469 126.230469 274.90625 C 127.800781 275.855469 128.320312 277.890625 127.390625 279.464844 C 118.207031 294.898438 125.101562 309.011719 128.5 314.355469 C 133.984375 322.984375 141.558594 327.71875 145.707031 327.324219 C 147.527344 327.144531 149.15625 328.484375 149.332031 330.308594 C 149.511719 332.128906 148.171875 333.757812 146.347656 333.933594 C 145.992188 333.988281 145.617188 334.007812 145.242188 334.007812 Z M 145.242188 334.007812 " fill-opacity="1" fill-rule="nonzero"/><path fill="#371a45" d="M 115.203125 280.320312 L 146.9375 270.050781 C 146.9375 270.050781 153.691406 262.527344 151.726562 263.082031 C 149.761719 263.652344 132.75 256.988281 132.75 256.988281 C 130.785156 265.921875 124.441406 273.550781 115.203125 280.320312 Z M 115.203125 280.320312 " fill-opacity="0.3" fill-rule="nonzero"/><path fill="#371a45" d="M 222.773438 259.847656 C 214.875 275.230469 215.429688 277.175781 215.429688 277.175781 C 216.753906 296.507812 201.347656 316.070312 175.152344 312.730469 C 155.195312 329.433594 131.230469 338.4375 111.808594 337.667969 C 88.132812 336.738281 70.960938 314.121094 77.359375 291.308594 C 78.089844 288.699219 79.089844 286.09375 80.378906 283.464844 C 79.949219 291.09375 81.414062 310.066406 106.304688 311.066406 C 137.503906 312.316406 163.558594 293.183594 163.558594 293.183594 L 162.503906 281.125 C 162.503906 281.125 186.070312 302.457031 202.957031 275.890625 C 219.84375 249.308594 222.128906 250.773438 216.109375 244.949219 C 215.644531 244.5 215.339844 244.054688 215.125 243.609375 C 218.378906 242.859375 221.96875 244.109375 223.773438 247.253906 C 225.382812 250.039062 225.738281 254.078125 222.773438 259.847656 Z M 222.773438 259.847656 " fill-opacity="0.3" fill-rule="nonzero"/><path fill="#371a45" d="M 214.695312 286.878906 C 253.417969 282.375 277.488281 270.15625 278.257812 245.574219 L 273.109375 245.039062 C 273.109375 245.039062 254.6875 257.167969 244 261.382812 C 233.296875 265.582031 218.199219 270.511719 218.199219 270.511719 Z M 214.695312 286.878906 " fill-opacity="0.3" fill-rule="nonzero"/><path fill="#371a45" d="M 136.683594 332.898438 C 136.683594 332.898438 129.339844 345.707031 146.9375 345.117188 C 164.539062 344.527344 173.902344 345.117188 173.902344 345.117188 L 189.519531 337.703125 L 190.503906 358.679688 C 240.679688 366.414062 276.664062 360.625 279.898438 323.625 L 281.417969 341.796875 L 295.695312 341.257812 L 295.25 354.105469 L 281.417969 354.746094 L 279.292969 368.84375 L 279.898438 382.492188 C 279.898438 382.492188 273.304688 390.496094 259.996094 390.710938 C 246.683594 390.925781 195.71875 392.15625 195.71875 392.15625 C 195.71875 392.15625 173.117188 394.445312 166.738281 370.523438 L 164.523438 364.289062 L 125.640625 365.539062 L 122.261719 357.765625 L 118.9375 350.566406 L 121.082031 337.703125 Z M 136.683594 332.898438 " fill-opacity="0.3" fill-rule="nonzero"/><path fill="#371a45" d="M 170.078125 316.75 C 170.078125 316.75 148.886719 330.238281 149.441406 330.664062 C 149.996094 331.09375 170.078125 331.648438 170.078125 331.648438 L 170.953125 326.449219 Z M 170.078125 316.75 " fill-opacity="0.3" fill-rule="nonzero"/><path fill="#371a45" d="M 84.878906 347.246094 C 84.878906 347.246094 104.5 358.964844 116.5625 349.675781 L 121.691406 356.535156 L 122.761719 367.34375 L 101.730469 367.34375 L 90.222656 363.25 Z M 84.878906 347.246094 " fill-opacity="0.3" fill-rule="nonzero"/><path fill="#371a45" d="M 277.628906 271.710938 C 277.628906 271.710938 291.800781 277.335938 303.253906 292.238281 C 303.253906 292.238281 299.753906 303.6875 300.734375 310.765625 C 301.71875 317.839844 293.980469 324.804688 293.980469 324.804688 C 287.921875 303.027344 281.542969 278.910156 277.628906 271.710938 Z M 277.628906 271.710938 " fill-opacity="0.3" fill-rule="nonzero"/><path fill="#371a45" d="M 311.046875 261.4375 C 311.027344 261.421875 311.027344 261.421875 311.046875 261.4375 Z M 311.046875 261.4375 " fill-opacity="1" fill-rule="nonzero"/><path fill="#371a45" d="M 346.765625 321.484375 C 345.085938 332.203125 339.886719 350.960938 323.855469 367.558594 C 323.855469 367.558594 323.554688 398.605469 295.695312 403.039062 C 295.695312 403.039062 295.765625 412.257812 295.679688 424.796875 C 275.34375 409.21875 280.132812 371.878906 280.597656 373.21875 C 290.800781 402.664062 323.714844 357.320312 315.121094 336.273438 C 342.476562 287.664062 313.082031 263.027344 311.152344 261.472656 C 324.375 271.515625 338.457031 285.859375 345.191406 304.546875 C 347.121094 309.976562 347.660156 315.800781 346.765625 321.484375 Z M 346.765625 321.484375 " fill-opacity="0.3" fill-rule="nonzero"/></svg>